GIL04_slow3_ik
nRows=3
nColumns=375

# SIMM Motion File Header:
name GIL04_slow3_ik
datacolumns 375
datarows 3
otherdata 1
range 0.98333000 1.00000000
endheader
time	pelvis_tx	pelvis_ty	pelvis_tz	pelvis_tilt	pelvis_list	pelvis_rotation	hip_flexion_r	hip_adduction_r	hip_rotation_r	knee_angle_r	ankle_angle_r	hip_flexion_l	hip_adduction_l	hip_rotation_l	knee_angle_l	ankle_angle_l	lumbar_extension	lumbar_bending	lumbar_rotation	subtalar_angle_r	mtp_angle_r	subtalar_angle_l	mtp_angle_l	asis_r_px	asis_r_py	asis_r_pz	asis_l_px	asis_l_py	asis_l_pz	midasis_px	midasis_py	midasis_pz	psis_r_px	psis_r_py	psis_r_pz	psis_l_px	psis_l_py	psis_l_pz	hip_r_px	hip_r_py	hip_r_pz	hip_l_px	hip_l_py	hip_l_pz	midhip_px	midhip_py	midhip_pz	epicondLat_r_px	epicondLat_r_py	epicondLat_r_pz	epicondMed_r_px	epicondMed_r_py	epicondMed_r_pz	thighwand_r_px	thighwand_r_py	thighwand_r_pz	upperleg1_r_px	upperleg1_r_py	upperleg1_r_pz	upperleg2_r_px	upperleg2_r_py	upperleg2_r_pz	malleolusLat_r_px	malleolusLat_r_py	malleolusLat_r_pz	malleolusMedv_r_px	malleolusMedv_r_py	malleolusMedv_r_pz	shankwand_r_px	shankwand_r_py	shankwand_r_pz	lowerleg1_r_px	lowerleg1_r_py	lowerleg1_r_pz	knee_r_px	knee_r_py	knee_r_pz	ankle_r_px	ankle_r_py	ankle_r_pz	toe_r_px	toe_r_py	toe_r_pz	epicondLat_l_px	epicondLat_l_py	epicondLat_l_pz	epicondMed_l_px	epicondMed_l_py	epicondMed_l_pz	thighwand_l_px	thighwand_l_py	thighwand_l_pz	upperleg1_l_px	upperleg1_l_py	upperleg1_l_pz	upperleg2_l_px	upperleg2_l_py	upperleg2_l_pz	malleolusLat_l_px	malleolusLat_l_py	malleolusLat_l_pz	malleolusMedv_l_px	malleolusMedv_l_py	malleolusMedv_l_pz	shankwand_l_px	shankwand_l_py	shankwand_l_pz	lowerleg1_l_px	lowerleg1_l_py	lowerleg1_l_pz	knee_l_px	knee_l_py	knee_l_pz	ankle_l_px	ankle_l_py	ankle_l_pz	toe_l_px	toe_l_py	toe_l_pz	subclavicle_r_px	subclavicle_r_py	subclavicle_r_pz	subclavicle_l_px	subclavicle_l_py	subclavicle_l_pz	neck_px	neck_py	neck_pz	sternalnotch_px	sternalnotch_py	sternalnotch_pz	xyphoidprocess_px	xyphoidprocess_py	xyphoidprocess_pz	midhip_tx	midhip_ty	midhip_tz	hip_r_tx	hip_r_ty	hip_r_tz	hip_l_tx	hip_l_ty	hip_l_tz	knee_r_tx	knee_r_ty	knee_r_tz	knee_l_tx	knee_l_ty	knee_l_tz	ankle_r_tx	ankle_r_ty	ankle_r_tz	ankle_l_tx	ankle_l_ty	ankle_l_tz	midasis_tx	midasis_ty	midasis_tz	asis_r_tx	asis_r_ty	asis_r_tz	asis_l_tx	asis_l_ty	asis_l_tz	psis_r_tx	psis_r_ty	psis_r_tz	psis_l_tx	psis_l_ty	psis_l_tz	epicondLat_r_tx	epicondLat_r_ty	epicondLat_r_tz	epicondLat_l_tx	epicondLat_l_ty	epicondLat_l_tz	epicondMed_r_tx	epicondMed_r_ty	epicondMed_r_tz	epicondMed_l_tx	epicondMed_l_ty	epicondMed_l_tz	malleolusLat_r_tx	malleolusLat_r_ty	malleolusLat_r_tz	malleolusLat_l_tx	malleolusLat_l_ty	malleolusLat_l_tz	malleolusMedv_r_tx	malleolusMedv_r_ty	malleolusMedv_r_tz	malleolusMedv_l_tx	malleolusMedv_l_ty	malleolusMedv_l_tz	neck_tx	neck_ty	neck_tz	subclavicle_r_tx	subclavicle_r_ty	subclavicle_r_tz	subclavicle_l_tx	subclavicle_l_ty	subclavicle_l_tz	sternalnotch_tx	sternalnotch_ty	sternalnotch_tz	xyphoidprocess_tx	xyphoidprocess_ty	xyphoidprocess_tz	thighwand_r_tx	thighwand_r_ty	thighwand_r_tz	thighwand_l_tx	thighwand_l_ty	thighwand_l_tz	upperleg1_r_tx	upperleg1_r_ty	upperleg1_r_tz	upperleg1_l_tx	upperleg1_l_ty	upperleg1_l_tz	upperleg2_r_tx	upperleg2_r_ty	upperleg2_r_tz	upperleg2_l_tx	upperleg2_l_ty	upperleg2_l_tz	shankwand_r_tx	shankwand_r_ty	shankwand_r_tz	shankwand_l_tx	shankwand_l_ty	shankwand_l_tz	lowerleg1_r_tx	lowerleg1_r_ty	lowerleg1_r_tz	lowerleg1_l_tx	lowerleg1_l_ty	lowerleg1_l_tz	toe_r_tx	toe_r_ty	toe_r_tz	toe_l_tx	toe_l_ty	toe_l_tz	ground_force_vx	ground_force_vy	ground_force_vz	ground_force_px	ground_force_py	ground_force_pz	ground_force_vx	ground_force_vy	ground_force_vz	ground_force_px	ground_force_py	ground_force_pz	ground_torque_x	ground_torque_y	ground_torque_z	ground_torque_x	ground_torque_y	ground_torque_z	ground_marker_px	ground_marker_py	ground_marker_pz	ground_marker_px	ground_marker_py	ground_marker_pz	ground_marker_px	ground_marker_py	ground_marker_pz	ground_marker_px	ground_marker_py	ground_marker_pz	ground_marker_px	ground_marker_py	ground_marker_pz	ground_marker_px	ground_marker_py	ground_marker_pz	ground_marker_px	ground_marker_py	ground_marker_pz	ground_marker_px	ground_marker_py	ground_marker_pz	ground_marker_px	ground_marker_py	ground_marker_pz	ground_marker_px	ground_marker_py	ground_marker_pz	ground_marker_px	ground_marker_py	ground_marker_pz	ground_marker_px	ground_marker_py	ground_marker_pz	ground_marker_px	ground_marker_py	ground_marker_pz	ground_marker_px	ground_marker_py	ground_marker_pz	ground_marker_px	ground_marker_py	ground_marker_pz	ground_marker_px	ground_marker_py	ground_marker_pz	ground_marker_px	ground_marker_py	ground_marker_pz	ground_marker_px	ground_marker_py	ground_marker_pz	ground_marker_px	ground_marker_py	ground_marker_pz	ground_marker_px	ground_marker_py	ground_marker_pz	ground_marker_px	ground_marker_py	ground_marker_pz	ground_marker_px	ground_marker_py	ground_marker_pz	ground_marker_px	ground_marker_py	ground_marker_pz	ground_marker_px	ground_marker_py	ground_marker_pz	ground_marker_px	ground_marker_py	ground_marker_pz	ground_marker_px	ground_marker_py	ground_marker_pz	ground_marker_px	ground_marker_py	ground_marker_pz	ground_marker_px	ground_marker_py	ground_marker_pz	ground_marker_px	ground_marker_py	ground_marker_pz	ground_marker_px	ground_marker_py	ground_marker_pz	ground_marker_px	ground_marker_py	ground_marker_pz	ground_marker_px	ground_marker_py	ground_marker_pz	ground_marker_px	ground_marker_py	ground_marker_pz	ground_marker_px	ground_marker_py	ground_marker_pz	ground_marker_px	ground_marker_py	ground_marker_pz	ground_marker_px	ground_marker_py	ground_marker_pz	ground_marker_px	ground_marker_py	ground_marker_pz
      0.98333000	      0.86621592	      0.74138435	     -0.27458777	     -3.78035737	     -1.47760448	     -0.21847213	     27.93873775	      0.58210827	     -0.12780634	    -42.13159521	      6.59157576	      1.60046586	      4.04386155	     -9.32887724	     -2.42723749	      3.87198335	     -6.36591097	     -0.90339510	      3.93214840	      0.00000000	      0.00000000	      0.00000000	      0.00000000	      0.96984188	      0.72502608	     -0.19400845	      0.97593120	      0.71076224	     -0.38019571	      0.87641108	      0.74071170	     -0.27454882	      0.84248329	      0.79671762	     -0.27799688	      0.84253554	      0.78777333	     -0.33219852	      0.81142258	      0.69824475	     -0.21262174	      0.81167909	      0.69507818	     -0.33445927	      0.81155084	      0.69666146	     -0.27354050	      0.98315429	      0.40476738	     -0.14919750	      0.98268744	      0.40195724	     -0.24966901	      0.95007778	      0.50657892	     -0.08127006	      0.96874588	      0.56997474	     -0.15213197	      1.00224311	      0.49222206	     -0.15944438	      0.86760703	      0.07683336	     -0.13716175	      0.87578230	      0.07899018	     -0.19667767	      0.88261143	      0.18764990	     -0.07477132	      0.91397599	      0.23002508	     -0.13854160	      0.94873657	      0.39697620	     -0.20786335	      0.85012212	      0.09300476	     -0.20305793	      0.96508440	      0.03108597	     -0.15545214	      0.82863595	      0.34900919	     -0.37803439	      0.84584111	      0.34757938	     -0.27534504	      0.97517632	      0.42993276	     -0.38916650	      0.92711572	      0.49843066	     -0.32789345	      0.90266346	      0.41528451	     -0.31400970	      0.76991837	      0.03504730	     -0.34717455	      0.78235946	      0.03994296	     -0.28491625	      0.87303589	      0.11908326	     -0.36993443	      0.82625309	      0.18448243	     -0.34202158	      0.79579098	      0.37025530	     -0.30243340	      0.77028947	      0.05337367	     -0.26953598	      0.87120600	      0.00471590	     -0.34148489	      0.87088840	      1.13624926	     -0.22831156	      0.87418051	      1.14417433	     -0.34339318	      0.79172450	      1.14446539	     -0.28703378	      0.87330486	      1.12794778	     -0.28925740	      0.95536714	      1.00935052	     -0.29441076	      0.82111200	      0.68799800	     -0.27034100	      0.81288500	      0.69767100	     -0.20683000	      0.81211200	      0.69369300	     -0.33259400	      0.94668000	      0.39982300	     -0.20310200	      0.80029800	      0.38190200	     -0.29720800	      0.84785000	      0.09386500	     -0.19526200	      0.76955700	      0.05944600	     -0.28716900	      0.88022300	      0.75697900	     -0.27206700	      0.88080500	      0.75997300	     -0.17738700	      0.87964100	      0.75398400	     -0.36674600	      0.73817100	      0.79967800	     -0.24746100	      0.73423900	      0.79577600	     -0.30174800	      0.94712000	      0.40065200	     -0.15261100	      0.79173000	      0.37666700	     -0.34619000	      0.96269000	      0.39255500	     -0.24798100	      0.80655500	      0.38142900	     -0.24398700	      0.83946700	      0.09740000	     -0.16302100	      0.75939900	      0.05938800	     -0.32014000	      0.85652100	      0.10107700	     -0.22089700	      0.76611800	      0.06444200	     -0.25853000	      0.79733600	      1.14755100	     -0.28655700	      0.88007900	      1.10012000	     -0.22316400	      0.87227500	      1.09703500	     -0.35229500	      0.87015500	      1.08726300	     -0.28965900	      0.88487600	      0.94407500	     -0.28639100	      0.91386800	      0.47971100	     -0.07225800	      0.92924700	      0.47231800	     -0.36236000	      0.92424600	      0.54924000	     -0.13843700	      0.87207900	      0.53743700	     -0.30282900	      0.96931500	      0.47722400	     -0.15125300	      0.85655900	      0.45311400	     -0.28522600	      0.85131100	      0.20228900	     -0.09322000	      0.85611000	      0.14850500	     -0.33970600	      0.88629200	      0.24716600	     -0.15134300	      0.80433200	      0.21053300	     -0.31384200	      0.93387900	      0.06010000	     -0.17346700	      0.85965600	      0.03667700	     -0.30534800	      0.00000000	      0.00000000	      0.00000000	      0.38206763	      0.00000000	     -0.20718532	     -4.33742896	    288.13734439	      6.33880219	      0.82923615	      0.00000000	     -0.29707877	      0.00000000	      0.00000000	      0.00000000	      0.00000000	     -0.68375745	      0.00000000	      0.82111168	      0.68799782	     -0.27034128	      0.81288451	      0.69767118	     -0.20682998	      0.81211156	      0.69369346	     -0.33259359	      0.94668049	      0.39982283	     -0.20310232	      0.80029780	      0.38190168	     -0.29720846	      0.84785014	      0.09386548	     -0.19526167	      0.76955706	      0.05944589	     -0.28716904	      0.88022327	      0.75697851	     -0.27206677	      0.88080519	      0.75997305	     -0.17738733	      0.87964135	      0.75398391	     -0.36674619	      0.73817092	      0.79967755	     -0.24746071	      0.73423910	      0.79577637	     -0.30174753	      0.94712013	      0.40065226	     -0.15261105	      0.79172999	      0.37666738	     -0.34619004	      0.96268976	      0.39255545	     -0.24798079	      0.80655503	      0.38142931	     -0.24398693	      0.83946741	      0.09739951	     -0.16302055	      0.75939935	      0.05938774	     -0.32013977	      0.85652083	      0.10107734	     -0.22089665	      0.76611763	      0.06444191	     -0.25852963	      0.79733551	      1.14755106	     -0.28655714	      0.88007939	      1.10012043	     -0.22316431	      0.87227452	      1.09703457	     -0.35229516	      0.87015462	      1.08726287	     -0.28965861	      0.88487583	      0.94407481	     -0.28639108	      0.91386807	      0.47971117	     -0.07225807	      0.92924696	      0.47231838	     -0.36235976	      0.92424595	      0.54923975	     -0.13843735	      0.87207854	      0.53743678	     -0.30282897	      0.96931523	      0.47722363	     -0.15125261	      0.85655934	      0.45311448	     -0.28522578	      0.85131055	      0.20228873	     -0.09322028	      0.85611004	      0.14850470	     -0.33970582	      0.88629162	      0.24716608	     -0.15134287	      0.80433190	      0.21053348	     -0.31384212	      0.93387878	      0.06009996	     -0.17346738	      0.85965645	      0.03667725	     -0.30534759
      0.99167000	      0.87324136	      0.74085823	     -0.27453751	     -3.61923732	     -1.55163919	     -0.23164986	     28.37701131	      0.73263941	     -0.65648037	    -40.31048089	      6.68879135	      0.98619178	      4.02050345	     -9.44622981	     -2.75214599	      4.60033940	     -6.51645544	     -0.84527739	      4.01371057	      0.00000000	      0.00000000	      0.00000000	      0.00000000	      0.97690110	      0.72489716	     -0.19392198	      0.98305812	      0.71040775	     -0.38008959	      0.88343837	      0.74021437	     -0.27449622	      0.84935341	      0.79611991	     -0.27802223	      0.84943887	      0.78710512	     -0.33221214	      0.81856065	      0.69764523	     -0.21252316	      0.81884410	      0.69432051	     -0.33435642	      0.81870238	      0.69598287	     -0.27343979	      0.99292627	      0.40568677	     -0.14927542	      0.99321528	      0.40336711	     -0.24976012	      0.95828392	      0.50680768	     -0.08109731	      0.97679157	      0.57074540	     -0.15151302	      1.01116188	      0.49338741	     -0.15895862	      0.89074692	      0.07439244	     -0.13957590	      0.89922355	      0.07718586	     -0.19902315	      0.90062466	      0.18543661	     -0.07657095	      0.93059454	      0.22941415	     -0.13992569	      0.95871863	      0.39802553	     -0.20823175	      0.87303634	      0.09013316	     -0.20551609	      0.99027953	      0.03310912	     -0.15736147	      0.83292955	      0.34809166	     -0.37768372	      0.85028596	      0.34660277	     -0.27502066	      0.98010231	      0.42781741	     -0.38911229	      0.93269535	      0.49675000	     -0.32781751	      0.90759293	      0.41381542	     -0.31382905	      0.76990810	      0.03474145	     -0.34618658	      0.78248322	      0.03957293	     -0.28395020	      0.87413940	      0.11732115	     -0.36920190	      0.82828537	      0.18340122	     -0.34135155	      0.80040835	      0.36964043	     -0.30205080	      0.77061478	      0.05319360	     -0.26858014	      0.87113357	      0.00447888	     -0.34104543	      0.87773555	      1.13553760	     -0.22844584	      0.88091082	      1.14345744	     -0.34353110	      0.79851148	      1.14373974	     -0.28708882	      0.88009189	      1.12723344	     -0.28939366	      0.96216556	      1.00864743	     -0.29462371	      0.82816900	      0.68764700	     -0.27058700	      0.82002300	      0.69729800	     -0.20716400	      0.81922000	      0.69323300	     -0.33292400	      0.95701400	      0.40060100	     -0.20454300	      0.80497900	      0.38150200	     -0.29726500	      0.87090000	      0.08997500	     -0.19573900	      0.76981600	      0.05946900	     -0.28701100	      0.88717200	      0.75675200	     -0.27246200	      0.88777600	      0.75981200	     -0.17778200	      0.88656800	      0.75369200	     -0.36714200	      0.74480100	      0.79911700	     -0.24764200	      0.74104600	      0.79513900	     -0.30198600	      0.95711400	      0.40109300	     -0.15404500	      0.79626800	      0.37630000	     -0.34622500	      0.97171100	      0.39351000	     -0.24964700	      0.81150700	      0.38109700	     -0.24426300	      0.86254200	      0.09320700	     -0.16345900	      0.75971400	      0.05952100	     -0.31999900	      0.87845900	      0.09764500	     -0.22145500	      0.76660100	      0.06446400	     -0.25840500	      0.80420000	      1.14714400	     -0.28668400	      0.88698200	      1.09963400	     -0.22328900	      0.87915200	      1.09663200	     -0.35235300	      0.87702400	      1.08682100	     -0.28972200	      0.89172900	      0.94362800	     -0.28658100	      0.92240700	      0.47947300	     -0.07351300	      0.93455700	      0.47104500	     -0.36279200	      0.93212100	      0.54930200	     -0.13938400	      0.87825000	      0.53655500	     -0.30326400	      0.97764800	      0.47785400	     -0.15251400	      0.86202800	      0.45232100	     -0.28561700	      0.87031900	      0.19868300	     -0.09373200	      0.85769400	      0.14722100	     -0.33949600	      0.90286900	      0.24503000	     -0.15211000	      0.80682800	      0.21005100	     -0.31383100	      0.95838100	      0.06003800	     -0.17472500	      0.85981700	      0.03662800	     -0.30530600	      0.00000000	      0.00000000	      0.00000000	      0.38255258	      0.00000000	     -0.20703023	     -4.71651898	    286.73762366	      6.68188594	      0.83489105	      0.00000000	     -0.29757806	      0.00000000	      0.00000000	      0.00000000	      0.00000000	     -0.70856274	      0.00000000	      0.82816869	      0.68764728	     -0.27058658	      0.82002288	      0.69729817	     -0.20716362	      0.81922036	      0.69323325	     -0.33292428	      0.95701414	      0.40060052	     -0.20454276	      0.80497926	      0.38150248	     -0.29726517	      0.87090039	      0.08997528	     -0.19573858	      0.76981586	      0.05946858	     -0.28701076	      0.88717222	      0.75675184	     -0.27246243	      0.88777643	      0.75981212	     -0.17778246	      0.88656801	      0.75369155	     -0.36714238	      0.74480116	      0.79911733	     -0.24764234	      0.74104583	      0.79513943	     -0.30198562	      0.95711374	      0.40109259	     -0.15404524	      0.79626822	      0.37629989	     -0.34622487	      0.97171068	      0.39350969	     -0.24964739	      0.81150734	      0.38109660	     -0.24426275	      0.86254233	      0.09320726	     -0.16345936	      0.75971353	      0.05952125	     -0.31999850	      0.87845910	      0.09764493	     -0.22145517	      0.76660144	      0.06446391	     -0.25840506	      0.80419987	      1.14714360	     -0.28668445	      0.88698161	      1.09963417	     -0.22328904	      0.87915218	      1.09663248	     -0.35235301	      0.87702370	      1.08682096	     -0.28972176	      0.89172852	      0.94362772	     -0.28658089	      0.92240661	      0.47947338	     -0.07351321	      0.93455750	      0.47104529	     -0.36279228	      0.93212062	      0.54930192	     -0.13938424	      0.87824976	      0.53655493	     -0.30326363	      0.97764850	      0.47785401	     -0.15251398	      0.86202842	      0.45232067	     -0.28561670	      0.87031931	      0.19868337	     -0.09373228	      0.85769403	      0.14722057	     -0.33949593	      0.90286857	      0.24503048	     -0.15211037	      0.80682844	      0.21005087	     -0.31383082	      0.95838070	      0.06003791	     -0.17472495	      0.85981721	      0.03662811	     -0.30530581
      1.00000000	      0.88029477	      0.74026216	     -0.27454723	     -3.46390881	     -1.63318255	     -0.22522225	     28.75490393	      0.88154875	     -1.19491940	    -38.39501112	      6.72198216	      0.37109270	      3.98946462	     -9.58736065	     -3.06375294	      5.30637991	     -6.66109183	     -0.75641649	      4.00853960	      0.00000000	      0.00000000	      0.00000000	      0.00000000	      0.98401331	      0.72469583	     -0.19393014	      0.99017270	      0.70995995	     -0.38007832	      0.89049350	      0.73964598	     -0.27450708	      0.85625657	      0.79545397	     -0.27810523	      0.85635572	      0.78636284	     -0.33228236	      0.82574356	      0.69698898	     -0.21246084	      0.82601190	      0.69349279	     -0.33428933	      0.82587773	      0.69524088	     -0.27337508	      1.00240044	      0.40636907	     -0.14940691	      1.00341544	      0.40454810	     -0.24989718	      0.96633144	      0.50682318	     -0.08098335	      0.98472981	      0.57127825	     -0.15095463	      1.01987765	      0.49428348	     -0.15853414	      0.91385827	      0.07231532	     -0.14187778	      0.92260271	      0.07574700	     -0.20125277	      0.91855276	      0.18338445	     -0.07831984	      0.94703274	      0.22890004	     -0.14127429	      0.96836476	      0.39887815	     -0.20864542	      0.89592888	      0.08759215	     -0.20786792	      1.01520902	      0.03548438	     -0.15914829	      0.83713601	      0.34712846	     -0.37739477	      0.85471804	      0.34556968	     -0.27477115	      0.98493539	      0.42562728	     -0.38922299	      0.93824205	      0.49499305	     -0.32786917	      0.91248796	      0.41227875	     -0.31376163	      0.76986515	      0.03445419	     -0.34523552	      0.78262012	      0.03921479	     -0.28303028	      0.87516717	      0.11557094	     -0.36857720	      0.83026784	      0.18231365	     -0.34075152	      0.80499935	      0.36897819	     -0.30170570	      0.77096654	      0.05302051	     -0.26766091	      0.87102419	      0.00422240	     -0.34070597	      0.88453855	      1.13475991	     -0.22848067	      0.88773895	      1.14269224	     -0.34356437	      0.80532646	      1.14295231	     -0.28714119	      0.88691069	      1.12646250	     -0.28942880	      0.96900920	      1.00789338	     -0.29465200	      0.83523400	      0.68720800	     -0.27081100	      0.82718800	      0.69684800	     -0.20748500	      0.82630200	      0.69268800	     -0.33324200	      0.96701600	      0.40120200	     -0.20598300	      0.80962100	      0.38106800	     -0.29733900	      0.89397400	      0.08643300	     -0.19626000	      0.77008500	      0.05952200	     -0.28684400	      0.89412500	      0.75643800	     -0.27287800	      0.89479100	      0.75956900	     -0.17820800	      0.89345800	      0.75330600	     -0.36754800	      0.75147400	      0.79847300	     -0.24779400	      0.74788600	      0.79441800	     -0.30220800	      0.96679600	      0.40135500	     -0.15548400	      0.80072600	      0.37590600	     -0.34627000	      0.98041000	      0.39416800	     -0.25132600	      0.81671800	      0.38054500	     -0.24456400	      0.88564800	      0.08936300	     -0.16394300	      0.76003600	      0.05968000	     -0.31984800	      0.90028800	      0.09443400	     -0.22202800	      0.76696700	      0.06452800	     -0.25822800	      0.81107600	      1.14660400	     -0.28676900	      0.89380200	      1.09915800	     -0.22336500	      0.88608600	      1.09617000	     -0.35241100	      0.88391600	      1.08631400	     -0.28975300	      0.89870800	      0.94316400	     -0.28666300	      0.93077100	      0.47905700	     -0.07474700	      0.93978700	      0.46969800	     -0.36333800	      0.94030600	      0.54909200	     -0.14029800	      0.88432000	      0.53557100	     -0.30370400	      0.98588300	      0.47815600	     -0.15370700	      0.86757700	      0.45145100	     -0.28606400	      0.88928100	      0.19524500	     -0.09427700	      0.85923800	      0.14596200	     -0.33928100	      0.91937500	      0.24291200	     -0.15283200	      0.80929900	      0.20956000	     -0.31383600	      0.98276000	      0.06030000	     -0.17606500	      0.85997400	      0.03658900	     -0.30525300	      0.00000000	      0.00000000	      0.00000000	      0.38303030	      0.00000000	     -0.20690326	     -4.91392951	    285.47581516	      7.01358110	      0.84043585	      0.00000000	     -0.29804581	      0.00000000	      0.00000000	      0.00000000	      0.00000000	     -0.74089996	      0.00000000	      0.83523405	      0.68720782	     -0.27081093	      0.82718754	      0.69684827	     -0.20748502	      0.82630169	      0.69268841	     -0.33324200	      0.96701568	      0.40120235	     -0.20598334	      0.80962080	      0.38106754	     -0.29733926	      0.89397377	      0.08643253	     -0.19625975	      0.77008510	      0.05952170	     -0.28684381	      0.89412457	      0.75643766	     -0.27287808	      0.89479142	      0.75956917	     -0.17820846	      0.89345771	      0.75330609	     -0.36754769	      0.75147355	      0.79847300	     -0.24779412	      0.74788588	      0.79441798	     -0.30220801	      0.96679622	      0.40135506	     -0.15548405	      0.80072588	      0.37590620	     -0.34627026	      0.98040998	      0.39416817	     -0.25132552	      0.81671822	      0.38054469	     -0.24456352	      0.88564813	      0.08936277	     -0.16394338	      0.76003641	      0.05967997	     -0.31984755	      0.90028816	      0.09443387	     -0.22202788	      0.76696706	      0.06452835	     -0.25822791	      0.81107551	      1.14660382	     -0.28676873	      0.89380205	      1.09915793	     -0.22336468	      0.88608611	      1.09617007	     -0.35241130	      0.88391644	      1.08631384	     -0.28975305	      0.89870816	      0.94316405	     -0.28666252	      0.93077064	      0.47905666	     -0.07474744	      0.93978691	      0.46969813	     -0.36333817	      0.94030553	      0.54909235	     -0.14029831	      0.88431996	      0.53557050	     -0.30370364	      0.98588347	      0.47815603	     -0.15370674	      0.86757654	      0.45145139	     -0.28606373	      0.88928056	      0.19524525	     -0.09427705	      0.85923809	      0.14596221	     -0.33928123	      0.91937542	      0.24291229	     -0.15283199	      0.80929869	      0.20956050	     -0.31383586	      0.98275971	      0.06029987	     -0.17606474	      0.85997355	      0.03658852	     -0.30525276
